inDegrees=yes
name=IK-live
DataType=double
version=3
OpenSimVersion=4.1
endheader
time	pelvis_tilt	pelvis_list	pelvis_rotation	pelvis_tx	pelvis_ty	pelvis_tz	hip_flexion_r	hip_adduction_r	hip_rotation_r	knee_angle_r	ankle_angle_r	subtalar_angle_r	mtp_angle_r	hip_flexion_l	hip_adduction_l	hip_rotation_l	knee_angle_l	ankle_angle_l	subtalar_angle_l	mtp_angle_l	lumbar_extension	lumbar_bending	lumbar_rotation	neck_flex	neck_latbend	neck_rot	arm_flex_r	arm_add_r	arm_rot_r	elbow_flex_r	pro_sup_r	wrist_flex_r	wrist_dev_r	arm_flex_l	arm_add_l	arm_rot_l	elbow_flex_l	pro_sup_l	wrist_flex_l	wrist_dev_l
0	-13.99743746027614	-5.903147223481898	-151.8655473139943	0.2341366603171506	0.04326292228651554	-1.326684523481465	-22.57117169827992	-1.591976316804377	-3.241458145969817	5.899560354604904	2.451982624139334	1.987972377786656	0	-24.74788768789517	-3.395140484746916	-11.58000132048591	9.793848132074926	-0.4439473045988533	4.250290820099795	0	-21.37711699760957	1.659277491615732	3.206407148933037	0	0	0	83.56980961710207	-14.99210637288996	-1.175816121527926	75.50334928253446	44.96909742657754	0	4.994198118335827	83.88520257438564	-15.07916133580678	-1.489924114221727	75.48656286602518	44.98528879699523	0	4.994198118335827
2.9632794	-17.44314824334067	8.006083164444128	-187.8807880312337	0.2341366603171506	0.04326292228651554	-1.326684523481465	-22.57117169827992	-1.591976316804377	-3.241458145969817	5.899560354604904	2.451982624139334	1.987972377786656	0	-24.74788768789517	-3.395140484746916	-11.58000132048591	9.793848132074926	-0.4439473045988533	4.250290820099795	0	-21.37711699760957	1.659277491615732	3.206407148933037	0	0	0	0.7800101145888473	-15.17650338832202	33.31165006045637	7.004290278747234	24.87341951075504	0	0.01205820479253233	5.871005180049435	-13.2297834514618	43.89926496682239	6.818847025535544	33.47974905905529	0	0.01205820479253233
3.114194	-16.54491185617209	8.841760156499276	-186.1778142038049	0.2341366603171506	0.04326292228651554	-1.326684523481465	-22.57117169827992	-1.591976316804377	-3.241458145969817	5.899560354604904	2.451982624139334	1.987972377786656	0	-24.74788768789517	-3.395140484746916	-11.58000132048591	9.793848132074926	-0.4439473045988533	4.250290820099795	0	-21.37711699760957	1.659277491615732	3.206407148933037	0	0	0	0.7799274765511989	-15.17650375026116	33.31175756664501	7.002828722984887	24.87314211059969	0	0.01193154414781	5.870929962053011	-13.22977982042712	43.89942522320087	6.817345890841807	33.47961273801978	0	0.01193154414781
3.273961	-16.75651190492498	5.153789651167655	-182.3329403300003	0.2341366603171506	0.04326292228651554	-1.326684523481465	-22.57117169827992	-1.591976316804377	-3.241458145969817	5.899560354604904	2.451982624139334	1.987972377786656	0	-24.74788768789517	-3.395140484746916	-11.58000132048591	9.793848132074926	-0.4439473045988533	4.250290820099795	0	-21.37711699760957	1.659277491615732	3.206407148933037	0	0	0	0.7801147662795752	-15.17650293005051	33.31151398175847	7.006122706441407	24.87377014981965	0	0.01221821736802804	5.871100437456363	-13.22978804891775	43.89906215106602	6.82072826127365	33.47992144695106	0	0.01221821736802804
3.4269275	-17.47856870990711	-3.395744672197218	-168.6038521535804	0.2341366603171506	0.04326292228651554	-1.326684523481465	-22.57117169827992	-1.591976316804377	-3.241458145969817	5.899560354604904	2.451982624139334	1.987972377786656	0	-24.74788768789517	-3.395140484746916	-11.58000132048591	9.793848132074926	-0.4439473045988533	4.250290820099795	0	-21.37711699760957	1.659277491615732	3.206407148933037	0	0	0	0.7804669983507508	-15.17650138936971	33.31105728388926	7.012053487075173	24.87493822079558	0	0.01274959517490622	5.871421096119322	-13.22980350526209	43.89838206976258	6.826808772003157	33.48049690172579	0	0.01274959517490622
3.5869267	-12.51181205408352	-14.69392860359819	-161.5982523203331	0.2341366603171506	0.04326292228651554	-1.326684523481465	-22.57117169827992	-1.591976316804377	-3.241458145969817	5.899560354604904	2.451982624139334	1.987972377786656	0	-24.74788768789517	-3.395140484746916	-11.58000132048591	9.793848132074926	-0.4439473045988533	4.250290820099795	0	-21.37711699760957	1.659277491615732	3.206407148933037	0	0	0	0.7817973626520666	-15.1764955556291	33.30932152584507	7.036117036317876	24.87944716976869	0	0.01481414337503355	5.872631834083567	-13.22986203041575	43.89579250702138	6.85153248681717	33.48270912909187	0	0.01481414337503355
3.7397688	-10.2449266660604	-19.78704190367837	-174.5969904873002	0.2341366603171506	0.04326292228651554	-1.326684523481465	-22.57117169827992	-1.591976316804377	-3.241458145969817	5.899560354604904	2.451982624139334	1.987972377786656	0	-24.74788768789517	-3.395140484746916	-11.58000132048591	9.793848132074926	-0.4439473045988533	4.250290820099795	0	-21.37711699760957	1.659277491615732	3.206407148933037	0	0	0	0.7819805533803206	-15.17649474355707	33.3090761739191	7.040221764337497	24.88012198683984	0	0.01513001837667904	5.872798328181304	-13.22987017737582	43.8954237983834	6.855768899945549	33.48303561430998	0	0.01513001837667904
3.9016638	-8.855099789170776	-7.240719795200795	-215.9144700069767	0.2341366603171506	0.04326292228651554	-1.326684523481465	-22.57117169827992	-1.591976316804377	-3.241458145969817	5.899560354604904	2.451982624139334	1.987972377786656	0	-24.74788768789517	-3.395140484746916	-11.58000132048591	9.793848132074926	-0.4439473045988533	4.250290820099795	0	-21.37711699760957	1.659277491615732	3.206407148933037	0	0	0	0.7834091819227578	-15.17648850339565	33.30722975863283	7.064347752231092	24.88481665465844	0	0.01726051869358163	5.874099102086405	-13.22993277953118	43.89267638460434	6.880534779317959	33.48535073032551	0	0.01726051869358163
4.0615866	-13.6584907316896	-7.461286809558061	-238.7540365040749	0.2341366603171506	0.04326292228651554	-1.326684523481465	-22.57117169827992	-1.591976316804377	-3.241458145969817	5.899560354604904	2.451982624139334	1.987972377786656	0	-24.74788768789517	-3.395140484746916	-11.58000132048591	9.793848132074926	-0.4439473045988533	4.250290820099795	0	-21.37711699760957	1.659277491615732	3.206407148933037	0	0	0	0.7840642360628738	-15.17648563193347	33.30637572151174	7.076175784694706	24.8870335832501	0	0.0182755345187828	5.874695282676974	-13.22996158655451	43.89140244356079	6.892687269069291	33.48643853931009	0	0.0182755345187828
